<?xml version="1.0" encoding="UTF-8" standalone="no"?><!DOCTYPE svg PUBLIC "-//W3C//DTD SVG 1.1//EN" "http://www.w3.org/Graphics/SVG/1.1/DTD/svg11.dtd"><svg width="100%" height="100%" viewBox="0 0 2500 2500" version="1.1" xmlns="http://www.w3.org/2000/svg" xmlns:xlink="http://www.w3.org/1999/xlink" xml:space="preserve" xmlns:serif="http://www.serif.com/" style="fill-rule:evenodd;clip-rule:evenodd;stroke-linejoin:round;stroke-miterlimit:2;"><path d="M970.625,142.675c-148.765,77.495 -270.475,143.071 -270.449,145.738c0.066,6.884 357.04,187.67 369.711,187.229c5.763,-0.193 47.574,-19.439 92.907,-42.764l82.438,-42.401l90.032,46.278l90.028,46.287l147.437,-66.25c222.159,-99.829 245.233,-110.769 241.615,-114.444c-4.798,-4.876 -84.482,-47.683 -300.67,-161.499c-104.481,-55.008 -205.888,-108.942 -225.356,-119.856c-19.465,-10.913 -38.049,-19.692 -41.295,-19.522c-3.246,0.17 -127.629,63.712 -276.398,141.204Zm-652.483,337.878l-154.863,79.992l0,351.07c0,193.09 2.034,351.067 4.528,351.067c2.486,0 78.679,-33.029 169.314,-73.396l164.791,-73.396l0,-370.051l80.528,43.873c62.053,33.777 124.144,67.485 186.273,101.124l105.742,57.252l47.052,-21.276c29.51,-13.366 58.961,-26.861 88.351,-40.486c22.711,-10.577 78.463,-35.687 123.888,-55.812c45.426,-20.133 87.475,-40.379 93.438,-44.993c7.92,-6.13 -88.662,-59.502 -357.231,-197.417c-202.443,-103.959 -374.573,-188.686 -382.512,-188.28c-7.938,0.406 -84.122,36.729 -169.299,80.729Zm1524.11,22.464c-105.471,47.614 -191.84,88.474 -191.938,90.804c-0.092,2.328 57.393,36.508 127.753,75.946c70.355,39.446 127.921,73.828 127.921,76.417c-0,2.584 -62.258,32.749 -138.342,67.048c-76.095,34.29 -268.427,121.149 -427.418,193.021l-532.725,240.8c-134.007,60.579 -254.799,115.181 -268.425,121.354c-273.717,123.908 -348.95,158.29 -359.282,164.192c-10.389,5.942 -12.743,40.463 -14.592,213.722l-2.206,206.645l138.485,70.562l138.483,70.559l192.028,-86.663c105.618,-47.66 192.027,-89.154 192.027,-92.21c0,-3.047 -19.517,-15.764 -43.36,-28.27c-23.855,-12.506 -73.097,-40.192 -109.437,-61.535c-36.339,-21.346 -72.573,-40.929 -80.528,-43.527c-7.953,-2.59 -14.344,-7.121 -14.215,-10.076c0.133,-2.946 84.693,-43.112 187.9,-89.264c200.462,-89.626 353.87,-158.705 683.217,-307.643c147.272,-66.585 294.562,-133.13 441.871,-199.634c129.465,-58.436 279.99,-126.685 334.503,-151.663l99.111,-45.414l2.204,-208.999l2.215,-208.989l-140.459,-72.095c-77.256,-39.647 -143.29,-71.99 -146.752,-71.872c-3.459,0.109 -92.576,39.158 -198.039,86.784Zm443.2,753.985c-20.698,10.11 -61.581,29.039 -90.851,42.061c-29.27,13.022 -84.814,38.084 -123.427,55.703l-70.205,32.02l-1.601,183.482c-0.885,100.912 -4.6,183.029 -8.258,182.496c-8.31,-1.235 -139.888,-68.715 -272.152,-139.588c-95.463,-51.146 -101.459,-53.179 -123.891,-42.07c-12.967,6.426 -90.48,41.188 -172.246,77.264c-81.769,36.071 -151.334,67.938 -154.606,70.824c-3.264,2.881 161.303,92.075 365.713,198.221l371.644,192.989l158.76,-82.126c87.308,-45.163 161.551,-86.36 164.97,-91.542c7.696,-11.651 7.036,-699.715 -0.668,-698.784c-3.048,0.365 -22.484,8.94 -43.182,19.05Zm-879.149,807.614c-27.539,11.839 -55.07,23.695 -82.593,35.569c-83.115,35.958 -66.827,37.15 -165.708,-12.074c-65.858,-32.784 -94.246,-42.9 -106.568,-37.989c-9.243,3.681 -88.789,39.469 -176.783,79.526c-87.987,40.056 -163.031,72.828 -166.764,72.828c-36.917,0 24.457,36.67 261.285,156.134l277.743,140.089l116.86,-57.692c64.274,-31.733 193.911,-95.275 288.092,-141.205c94.171,-45.941 170.059,-84.718 168.639,-86.182c-1.432,-1.457 -80.341,-41.977 -175.362,-90.044l-172.767,-87.383l-66.074,28.423Z" style="fill:#fff;"/></svg>