<?xml version="1.0" encoding="UTF-8"?>
<!DOCTYPE svg PUBLIC "-//W3C//DTD SVG 1.1//EN" "http://www.w3.org/Graphics/SVG/1.1/DTD/svg11.dtd">
<svg xmlns="http://www.w3.org/2000/svg" version="1.1" width="299px" height="312px" style="shape-rendering:geometricPrecision; text-rendering:geometricPrecision; image-rendering:optimizeQuality; fill-rule:evenodd; clip-rule:evenodd" xmlns:xlink="http://www.w3.org/1999/xlink">
<g><path style="opacity:0.035" fill="#a9b9b9" d="M 222.5,0.5 C 227.192,0.424927 231.526,1.42493 235.5,3.5C 230.948,2.94341 226.615,1.94341 222.5,0.5 Z"/></g>
<g><path style="opacity:0.882" fill="#8c9d99" d="M 185.5,2.5 C 181.767,4.41104 177.767,5.74437 173.5,6.5C 177.085,4.19393 181.085,2.8606 185.5,2.5 Z"/></g>
<g><path style="opacity:1" fill="#758886" d="M 235.5,3.5 C 239.297,3.87234 242.63,5.20567 245.5,7.5C 241.702,7.17702 238.369,5.84369 235.5,3.5 Z"/></g>
<g><path style="opacity:0.059" fill="#aec0be" d="M 245.5,7.5 C 247.38,7.22911 248.713,7.89578 249.5,9.5C 247.847,9.3404 246.514,8.67373 245.5,7.5 Z"/></g>
<g><path style="opacity:0.533" fill="#92a6a4" d="M 169.5,8.5 C 167.967,10.2451 165.967,11.2451 163.5,11.5C 164.911,9.46095 166.911,8.46095 169.5,8.5 Z"/></g>
<g><path style="opacity:0.573" fill="#96a4a3" d="M 163.5,11.5 C 162.514,13.4077 160.848,14.4077 158.5,14.5C 159.659,12.7497 161.326,11.7497 163.5,11.5 Z"/></g>
<g><path style="opacity:1" fill="#fdfefd" d="M 217.5,15.5 C 220.86,15.6159 224.193,15.9492 227.5,16.5C 229.679,17.6772 232.013,18.6772 234.5,19.5C 235.747,21.178 237.414,22.5113 239.5,23.5C 239.291,24.086 238.957,24.586 238.5,25C 244.272,25.6011 248.606,28.4344 251.5,33.5C 261.683,46.7156 266.35,61.7156 265.5,78.5C 265.46,85.5352 264.96,92.5352 264,99.5C 261.865,105.766 259.199,111.766 256,117.5C 251.984,124.847 246.984,131.514 241,137.5C 225.356,152.867 210.189,168.533 195.5,184.5C 194.277,185.614 192.944,185.781 191.5,185C 192.784,183.703 192.617,182.536 191,181.5C 190.583,182.756 189.75,183.423 188.5,183.5C 180.886,176.222 173.22,168.889 165.5,161.5C 159.167,155.5 152.833,149.5 146.5,143.5C 139.676,136.066 132.343,129.066 124.5,122.5C 123.167,120.5 121.5,118.833 119.5,117.5C 114.776,111.773 109.442,106.773 103.5,102.5C 102.89,101.609 102.557,100.609 102.5,99.5C 102.343,98.1266 102.51,96.7932 103,95.5C 106.076,93.1459 109.076,91.4792 112,90.5C 113.359,86.1477 115.859,82.6477 119.5,80C 116.723,77.8266 116.89,77.3266 120,78.5C 121.177,76.8243 122.677,75.4909 124.5,74.5C 125.386,73.675 125.719,72.675 125.5,71.5C 126.675,71.719 127.675,71.3857 128.5,70.5C 128.726,68.2637 129.559,65.9304 131,63.5C 132.587,64.727 133.921,64.3937 135,62.5C 135.494,60.8659 135.66,59.1992 135.5,57.5C 136.5,57.5 137.5,57.5 138.5,57.5C 138.704,55.3146 139.37,53.3146 140.5,51.5C 141.5,49.8333 142.833,48.5 144.5,47.5C 147.733,46.4813 150.566,44.8146 153,42.5C 153.333,42.8333 153.667,43.1667 154,43.5C 154.283,40.2577 155.117,39.9244 156.5,42.5C 157.734,40.6017 157.401,38.935 155.5,37.5C 159.834,35.3329 163.834,32.6663 167.5,29.5C 169.214,30.6085 169.881,29.9418 169.5,27.5C 173.785,25.4492 178.285,23.7826 183,22.5C 183.772,22.6448 184.439,22.9781 185,23.5C 185.273,21.6711 186.107,20.1711 187.5,19C 197.311,16.2044 207.311,15.0378 217.5,15.5 Z"/></g>
<g><path style="opacity:1" fill="#5a716c" d="M 253.5,11.5 C 258.356,13.7601 262.689,16.7601 266.5,20.5C 266.5,20.8333 266.5,21.1667 266.5,21.5C 264.883,20.962 263.216,20.6287 261.5,20.5C 261.5,19.5 261.5,18.5 261.5,17.5C 260.127,17.6567 258.793,17.49 257.5,17C 256.279,14.9663 254.945,13.133 253.5,11.5 Z"/></g>
<g><path style="opacity:0.588" fill="#9fabac" d="M 266.5,20.5 C 268.833,22.1667 270.833,24.1667 272.5,26.5C 269.911,25.5806 267.911,23.914 266.5,21.5C 266.5,21.1667 266.5,20.8333 266.5,20.5 Z"/></g>
<g><path style="opacity:0.965" fill="#809190" d="M 158.5,14.5 C 154.466,18.5355 150.132,22.2022 145.5,25.5C 148.948,20.7131 153.281,17.0464 158.5,14.5 Z"/></g>
<g><path style="opacity:0.4" fill="#9eb6af" d="M 145.5,25.5 C 144.5,27.1667 143.167,28.5 141.5,29.5C 141.833,27.1667 143.167,25.8333 145.5,25.5 Z"/></g>
<g><path style="opacity:0.729" fill="#a0afae" d="M 272.5,26.5 C 274.914,27.9108 276.581,29.9108 277.5,32.5C 275.086,31.0892 273.419,29.0892 272.5,26.5 Z"/></g>
<g><path style="opacity:0.486" fill="#9caeab" d="M 141.5,29.5 C 139.167,32.5 136.5,35.1667 133.5,37.5C 135.167,33.8333 137.833,31.1667 141.5,29.5 Z"/></g>
<g><path style="opacity:0.875" fill="#92a4a1" d="M 277.5,32.5 C 279.262,33.2623 280.262,34.5956 280.5,36.5C 278.738,35.7377 277.738,34.4044 277.5,32.5 Z"/></g>
<g><path style="opacity:0.722" fill="#93a3a0" d="M 280.5,36.5 C 282.262,37.2623 283.262,38.5956 283.5,40.5C 281.738,39.7377 280.738,38.4044 280.5,36.5 Z"/></g>
<g><path style="opacity:0.22" fill="#acbbb8" d="M 129.5,41.5 C 129.167,42.5 128.5,43.1667 127.5,43.5C 127.5,42.1667 128.167,41.5 129.5,41.5 Z"/></g>
<g><path style="opacity:0.145" fill="#b1c0bf" d="M 283.5,40.5 C 284.906,40.9731 285.573,41.9731 285.5,43.5C 284.094,43.0269 283.427,42.0269 283.5,40.5 Z"/></g>
<g><path style="opacity:1" fill="#435c59" d="M 133.5,37.5 C 132.402,38.397 132.402,39.2303 133.5,40C 131.223,41.6132 129.723,43.7799 129,46.5C 128.667,46.1667 128.333,45.8333 128,45.5C 127.751,46.624 127.251,47.624 126.5,48.5C 123.472,50.2135 120.472,51.8802 117.5,53.5C 120.5,49.8333 123.833,46.5 127.5,43.5C 128.5,43.1667 129.167,42.5 129.5,41.5C 130.167,39.5 131.5,38.1667 133.5,37.5 Z"/></g>
<g><path style="opacity:1" fill="#617774" d="M 285.5,43.5 C 289.559,49.6238 292.559,56.2904 294.5,63.5C 292.036,58.5917 289.036,53.925 285.5,49.5C 285.92,47.674 285.92,45.674 285.5,43.5 Z"/></g>
<g><path style="opacity:0.808" fill="#99adab" d="M 117.5,53.5 C 116.243,56.4274 114.243,58.7607 111.5,60.5C 112.757,57.5726 114.757,55.2393 117.5,53.5 Z"/></g>
<g><path style="opacity:0.973" fill="#768b8a" d="M 111.5,60.5 C 110.811,63.1894 109.144,64.8561 106.5,65.5C 107.882,63.4514 109.548,61.7847 111.5,60.5 Z"/></g>
<g><path style="opacity:0.486" fill="#96acaa" d="M 104.5,67.5 C 103.92,69.7488 102.587,71.4154 100.5,72.5C 101.08,70.2512 102.413,68.5846 104.5,67.5 Z"/></g>
<g><path style="opacity:0.337" fill="#abb8b9" d="M 100.5,72.5 C 99.8333,73.8333 98.8333,74.8333 97.5,75.5C 97.5,73.5 98.5,72.5 100.5,72.5 Z"/></g>
<g><path style="opacity:0.902" fill="#819392" d="M 97.5,75.5 C 95.9059,78.7642 93.5725,81.4309 90.5,83.5C 92.0941,80.2358 94.4275,77.5691 97.5,75.5 Z"/></g>
<g><path style="opacity:0.373" fill="#99aaaa" d="M 85.5,88.5 C 84.2427,91.4274 82.2427,93.7607 79.5,95.5C 80.7573,92.5726 82.7573,90.2393 85.5,88.5 Z"/></g>
<g><path style="opacity:0.933" fill="#829492" d="M 78.5,96.5 C 75.8991,100.771 72.5658,104.437 68.5,107.5C 71.1009,103.229 74.4342,99.5628 78.5,96.5 Z"/></g>
<g><path style="opacity:0.933" fill="#839694" d="M 65.5,110.5 C 63.9059,113.764 61.5725,116.431 58.5,118.5C 60.0941,115.236 62.4275,112.569 65.5,110.5 Z"/></g>
<g><path style="opacity:0.067" fill="#a5bab7" d="M 296.5,111.5 C 296.451,115.078 295.785,118.411 294.5,121.5C 294.322,117.878 294.989,114.544 296.5,111.5 Z"/></g>
<g><path style="opacity:1" fill="#19413e" d="M 103.5,102.5 C 109.442,106.773 114.776,111.773 119.5,117.5C 118.007,118.322 116.674,119.489 115.5,121C 117.964,124.092 119.797,127.592 121,131.5C 122.667,132.833 124.333,132.833 126,131.5C 127.605,133.825 129.272,136.158 131,138.5C 132.131,137.396 132.965,137.729 133.5,139.5C 132.086,140.624 130.586,141.624 129,142.5C 127.352,141.283 125.519,140.45 123.5,140C 122.57,134.765 119.57,131.432 114.5,130C 112.392,127.105 110.059,124.439 107.5,122C 106.551,121.383 105.718,121.549 105,122.5C 103.601,118.867 101.101,116.2 97.5,114.5C 96.6816,112.892 96.0149,111.225 95.5,109.5C 96.7662,108.276 97.9328,106.943 99,105.5C 100.666,106.34 100.833,105.84 99.5,104C 100.745,103.209 102.078,102.709 103.5,102.5 Z"/></g>
<g><path style="opacity:0.976" fill="#647978" d="M 58.5,118.5 C 57.8333,121.167 56.1667,122.833 53.5,123.5C 54.8333,121.5 56.5,119.833 58.5,118.5 Z"/></g>
<g><path style="opacity:0.769" fill="#93a6a2" d="M 53.5,123.5 C 50.5665,127.773 47.2332,131.773 43.5,135.5C 42.5,136.167 41.5,136.833 40.5,137.5C 44.1047,132.226 48.438,127.559 53.5,123.5 Z"/></g>
<g><path style="opacity:0.004" fill="#f6f1f2" d="M 38.5,132.5 C 39.8333,133.167 39.8333,133.167 38.5,132.5 Z"/></g>
<g><path style="opacity:0.302" fill="#a1b4b3" d="M 289.5,133.5 C 289.34,135.153 288.674,136.486 287.5,137.5C 287.229,135.62 287.896,134.287 289.5,133.5 Z"/></g>
<g><path style="opacity:1" fill="#54d490" d="M 97.5,119.5 C 98.1667,119.833 98.8333,120.167 99.5,120.5C 101.5,122.833 103.5,125.167 105.5,127.5C 109.578,134.398 115.245,139.732 122.5,143.5C 122.908,146.198 124.074,148.531 126,150.5C 131.337,156.81 137.337,162.477 144,167.5C 146.173,170.52 148.34,173.52 150.5,176.5C 148.197,178.56 146.197,181.56 144.5,185.5C 142.5,186.833 140.5,188.167 138.5,189.5C 137.534,191.396 137.201,193.396 137.5,195.5C 132.167,195.5 126.833,195.5 121.5,195.5C 121.334,185.161 121.5,174.828 122,164.5C 123.011,163.663 124.178,163.33 125.5,163.5C 125.833,160.5 124.5,159.167 121.5,159.5C 121.67,160.822 121.337,161.989 120.5,163C 113.809,163.169 107.142,163.669 100.5,164.5C 101.375,166.773 103.042,167.773 105.5,167.5C 108.29,178.573 108.124,189.573 105,200.5C 102.876,199.378 101.043,197.878 99.5,196C 102.147,195.685 102.813,194.518 101.5,192.5C 98.8333,191.167 96.1667,191.167 93.5,192.5C 92.2451,194.78 90.2451,195.947 87.5,196C 85.9571,197.878 84.1238,199.378 82,200.5C 81.5065,198.866 81.3398,197.199 81.5,195.5C 79.5,195.5 77.5,195.5 75.5,195.5C 75.8134,198.247 75.48,200.914 74.5,203.5C 72.2046,202.568 69.8713,201.735 67.5,201C 69.5,200.167 71.5,199.333 73.5,198.5C 72.286,196.931 70.6193,196.098 68.5,196C 67.9415,195.275 67.6082,194.442 67.5,193.5C 68.2138,190.405 69.2138,187.405 70.5,184.5C 70.8205,181.226 69.4872,179.726 66.5,180C 67.7766,182.466 67.7766,184.966 66.5,187.5C 65.0944,186.573 63.5944,185.573 62,184.5C 61.5065,182.866 61.3398,181.199 61.5,179.5C 62.8734,179.657 64.2068,179.49 65.5,179C 63.294,176.654 60.794,176.154 58,177.5C 57.1923,175.421 57.359,173.421 58.5,171.5C 59.8479,173.461 61.1813,173.628 62.5,172C 60.6787,169.544 60.012,166.711 60.5,163.5C 57.487,163.628 54.987,162.628 53,160.5C 49.7906,161.494 47.9573,160.161 47.5,156.5C 50.8083,153.296 53.975,149.962 57,146.5C 57.9888,144.03 59.1554,141.697 60.5,139.5C 69.7666,132.644 77.9333,124.644 85,115.5C 86,115.167 87,114.833 88,114.5C 91.526,115.653 94.6927,117.32 97.5,119.5 Z"/></g>
<g><path style="opacity:0.051" fill="#b8c3c1" d="M 284.5,142.5 C 284.573,144.027 283.906,145.027 282.5,145.5C 282.427,143.973 283.094,142.973 284.5,142.5 Z"/></g>
<g><path style="opacity:0.373" fill="#93a9a7" d="M 40.5,137.5 C 37.5643,142.105 33.8976,146.105 29.5,149.5C 32.4357,144.895 36.1024,140.895 40.5,137.5 Z"/></g>
<g><path style="opacity:1" fill="#1d423e" d="M 124.5,122.5 C 132.343,129.066 139.676,136.066 146.5,143.5C 143.607,143.632 141.274,144.799 139.5,147C 140.035,149.109 141.035,149.609 142.5,148.5C 143.478,148.977 144.311,149.643 145,150.5C 146.268,156.942 150.101,160.276 156.5,160.5C 156.5,161.5 156.5,162.5 156.5,163.5C 153.833,163.5 151.167,163.5 148.5,163.5C 146.784,163.371 145.117,163.038 143.5,162.5C 143.649,161.448 143.483,160.448 143,159.5C 139.88,155.564 136.713,151.898 133.5,148.5C 135.084,147.618 136.751,146.785 138.5,146C 137.833,144 136.5,142.667 134.5,142C 134.833,141.667 135.167,141.333 135.5,141C 134.314,138.252 133.314,135.419 132.5,132.5C 130.5,131.5 128.5,130.5 126.5,129.5C 125.795,127.328 124.795,125.328 123.5,123.5C 123.624,122.893 123.957,122.56 124.5,122.5 Z"/></g>
<g><path style="opacity:0.008" fill="#b5c6c6" d="M 281.5,146.5 C 281.573,148.027 280.906,149.027 279.5,149.5C 279.427,147.973 280.094,146.973 281.5,146.5 Z"/></g>
<g><path style="opacity:1" fill="#5bc48f" d="M 122.5,143.5 C 129.15,150.146 136.15,156.479 143.5,162.5C 148.921,168.183 154.254,173.849 159.5,179.5C 156.711,177.986 153.711,176.986 150.5,176.5C 148.34,173.52 146.173,170.52 144,167.5C 137.337,162.477 131.337,156.81 126,150.5C 124.074,148.531 122.908,146.198 122.5,143.5 Z"/></g>
<g><path style="opacity:0.004" fill="#baccca" d="M 276.5,152.5 C 276.573,154.027 275.906,155.027 274.5,155.5C 274.5,154.833 274.5,154.167 274.5,153.5C 275.167,153.167 275.833,152.833 276.5,152.5 Z"/></g>
<g><path style="opacity:0.867" fill="#8b9f9b" d="M 28.5,150.5 C 27.2427,153.427 25.2427,155.761 22.5,157.5C 23.7573,154.573 25.7573,152.239 28.5,150.5 Z"/></g>
<g><path style="opacity:1" fill="#4f6866" d="M 274.5,153.5 C 274.5,154.167 274.5,154.833 274.5,155.5C 273.167,157.5 271.5,159.167 269.5,160.5C 268.981,156.521 270.648,154.187 274.5,153.5 Z"/></g>
<g><path style="opacity:0.004" fill="#eff1f2" d="M 17.5,156.5 C 18.8333,157.167 18.8333,157.167 17.5,156.5 Z"/></g>
<g><path style="opacity:1" fill="#135239" d="M 121.5,141.5 C 126.03,143.053 130.03,145.386 133.5,148.5C 136.713,151.898 139.88,155.564 143,159.5C 143.483,160.448 143.649,161.448 143.5,162.5C 136.15,156.479 129.15,150.146 122.5,143.5C 122.167,142.833 121.833,142.167 121.5,141.5 Z"/></g>
<g><path style="opacity:1" fill="#52d290" d="M 47.5,156.5 C 47.9573,160.161 49.7906,161.494 53,160.5C 54.987,162.628 57.487,163.628 60.5,163.5C 60.012,166.711 60.6787,169.544 62.5,172C 61.1813,173.628 59.8479,173.461 58.5,171.5C 57.359,173.421 57.1923,175.421 58,177.5C 60.794,176.154 63.294,176.654 65.5,179C 64.2068,179.49 62.8734,179.657 61.5,179.5C 61.3398,181.199 61.5065,182.866 62,184.5C 63.5944,185.573 65.0944,186.573 66.5,187.5C 67.7766,184.966 67.7766,182.466 66.5,180C 69.4872,179.726 70.8205,181.226 70.5,184.5C 69.2138,187.405 68.2138,190.405 67.5,193.5C 67.6082,194.442 67.9415,195.275 68.5,196C 70.6193,196.098 72.286,196.931 73.5,198.5C 71.5,199.333 69.5,200.167 67.5,201C 69.8713,201.735 72.2046,202.568 74.5,203.5C 75.48,200.914 75.8134,198.247 75.5,195.5C 77.5,195.5 79.5,195.5 81.5,195.5C 81.3398,197.199 81.5065,198.866 82,200.5C 84.1238,199.378 85.9571,197.878 87.5,196C 90.2451,195.947 92.2451,194.78 93.5,192.5C 96.1667,191.167 98.8333,191.167 101.5,192.5C 102.813,194.518 102.147,195.685 99.5,196C 101.043,197.878 102.876,199.378 105,200.5C 108.124,189.573 108.29,178.573 105.5,167.5C 103.042,167.773 101.375,166.773 100.5,164.5C 107.142,163.669 113.809,163.169 120.5,163C 121.337,161.989 121.67,160.822 121.5,159.5C 124.5,159.167 125.833,160.5 125.5,163.5C 124.178,163.33 123.011,163.663 122,164.5C 121.5,174.828 121.334,185.161 121.5,195.5C 126.833,195.5 132.167,195.5 137.5,195.5C 137.201,193.396 137.534,191.396 138.5,189.5C 140.5,188.167 142.5,186.833 144.5,185.5C 146.197,181.56 148.197,178.56 150.5,176.5C 153.711,176.986 156.711,177.986 159.5,179.5C 167.112,185.775 174.446,192.442 181.5,199.5C 181.5,200.167 181.5,200.833 181.5,201.5C 173.73,210.025 165.73,218.359 157.5,226.5C 155.833,226.5 154.167,226.5 152.5,226.5C 152.719,227.675 152.386,228.675 151.5,229.5C 147.081,233.369 143.581,237.369 141,241.5C 140.667,241.167 140.333,240.833 140,240.5C 138.47,242.226 137.47,244.226 137,246.5C 136.333,247.833 135.667,247.833 135,246.5C 133.859,249.472 131.692,251.139 128.5,251.5C 127.201,253.758 126.201,256.092 125.5,258.5C 123.278,258.178 121.444,258.845 120,260.5C 119.667,260.167 119.333,259.833 119,259.5C 118.751,260.624 118.251,261.624 117.5,262.5C 115.667,263.052 114,263.885 112.5,265C 113.833,265.667 113.833,266.333 112.5,267C 110.481,267.45 108.648,268.283 107,269.5C 104.936,268.409 102.769,268.242 100.5,269C 97.8525,271.287 94.8525,273.12 91.5,274.5C 86.1965,273.764 80.8632,273.264 75.5,273C 80.0587,272.689 80.392,271.855 76.5,270.5C 75.3527,270.818 74.5194,271.484 74,272.5C 73.2496,271.874 72.4162,271.374 71.5,271C 74.0393,269.195 75.0393,266.695 74.5,263.5C 69.1418,261.692 67.1418,263.525 68.5,269C 67.5838,269.374 66.7504,269.874 66,270.5C 63.2049,269.192 60.7049,267.526 58.5,265.5C 65.2131,263.175 67.3797,258.508 65,251.5C 63.6703,250.418 62.1703,249.751 60.5,249.5C 57.8926,245.685 54.226,244.518 49.5,246C 48.7224,249.147 47.8891,252.313 47,255.5C 45.1335,256.527 43.3002,257.527 41.5,258.5C 42.7357,253.933 43.4024,249.266 43.5,244.5C 47.0614,244.635 49.8948,243.302 52,240.5C 52.3333,240.833 52.6667,241.167 53,241.5C 53.2958,238.567 52.7958,235.734 51.5,233C 51.7065,231.634 52.0398,230.301 52.5,229C 52.1639,227.97 51.4972,227.47 50.5,227.5C 49.5104,221.69 49.1771,215.69 49.5,209.5C 48.2974,207.86 47.464,206.193 47,204.5C 49,203.833 51,203.167 53,202.5C 53.3333,202.833 53.6667,203.167 54,203.5C 54.4828,202.552 54.6495,201.552 54.5,200.5C 58.0628,196.582 59.3961,191.915 58.5,186.5C 56.1432,186.337 53.8098,186.503 51.5,187C 50.6634,188.011 50.33,189.178 50.5,190.5C 46.5913,191.621 44.5913,194.288 44.5,198.5C 45.3235,200.455 45.4901,202.455 45,204.5C 44.586,204.043 44.086,203.709 43.5,203.5C 41.593,206.395 38.9264,207.728 35.5,207.5C 35.6198,210.205 34.6198,210.872 32.5,209.5C 31.1104,204.416 31.277,199.416 33,194.5C 34.3561,195.38 35.8561,195.714 37.5,195.5C 37.5,192.833 37.5,190.167 37.5,187.5C 31.8284,186.51 27.3284,188.177 24,192.5C 23.3658,189.445 23.5325,186.445 24.5,183.5C 27.2289,177.42 31.3956,172.42 37,168.5C 38.7733,165.582 40.2733,162.582 41.5,159.5C 43.9468,159.385 45.9468,158.385 47.5,156.5 Z"/></g>
<g><path style="opacity:0.925" fill="#839594" d="M 22.5,157.5 C 21.5806,160.089 19.914,162.089 17.5,163.5C 18.4194,160.911 20.086,158.911 22.5,157.5 Z"/></g>
<g><path style="opacity:1" fill="#0c4c36" d="M 57.5,140.5 C 46.2087,152.465 35.2087,164.798 24.5,177.5C 26.3833,168.601 31.3833,161.935 39.5,157.5C 43.3774,152.878 46.7107,148.378 49.5,144C 52.11,142.519 54.7766,141.352 57.5,140.5 Z"/></g>
<g><path style="opacity:1" fill="#57b98b" d="M 60.5,139.5 C 59.1554,141.697 57.9888,144.03 57,146.5C 53.975,149.962 50.8083,153.296 47.5,156.5C 45.9468,158.385 43.9468,159.385 41.5,159.5C 40.2733,162.582 38.7733,165.582 37,168.5C 31.3956,172.42 27.2289,177.42 24.5,183.5C 23.8333,183.5 23.1667,183.5 22.5,183.5C 22.8333,182.167 23.1667,180.833 23.5,179.5C 24.3382,179.158 24.6716,178.492 24.5,177.5C 35.2087,164.798 46.2087,152.465 57.5,140.5C 58.391,139.89 59.391,139.557 60.5,139.5 Z"/></g>
<g><path style="opacity:1" fill="#bbcfd0" d="M 234.5,19.5 C 234.833,19.5 235.167,19.5 235.5,19.5C 266.132,32.6939 282.132,56.1939 283.5,90C 283.673,107.839 278.84,124.005 269,138.5C 249.139,159.693 229.305,180.86 209.5,202C 207.874,201.32 206.207,200.32 204.5,199C 199.271,193.603 193.938,188.436 188.5,183.5C 189.75,183.423 190.583,182.756 191,181.5C 192.617,182.536 192.784,183.703 191.5,185C 192.944,185.781 194.277,185.614 195.5,184.5C 210.189,168.533 225.356,152.867 241,137.5C 246.984,131.514 251.984,124.847 256,117.5C 259.199,111.766 261.865,105.766 264,99.5C 264.96,92.5352 265.46,85.5352 265.5,78.5C 266.35,61.7156 261.683,46.7156 251.5,33.5C 248.606,28.4344 244.272,25.6011 238.5,25C 238.957,24.586 239.291,24.086 239.5,23.5C 237.414,22.5113 235.747,21.178 234.5,19.5 Z"/></g>
<g><path style="opacity:1" fill="#194138" d="M 146.5,143.5 C 152.833,149.5 159.167,155.5 165.5,161.5C 165.318,163.591 165.652,165.591 166.5,167.5C 165.645,168.293 164.811,167.96 164,166.5C 163.517,167.448 163.351,168.448 163.5,169.5C 161.102,169.259 159.102,169.926 157.5,171.5C 154.271,169.058 151.271,166.392 148.5,163.5C 151.167,163.5 153.833,163.5 156.5,163.5C 156.5,162.5 156.5,161.5 156.5,160.5C 150.101,160.276 146.268,156.942 145,150.5C 144.311,149.643 143.478,148.977 142.5,148.5C 141.035,149.609 140.035,149.109 139.5,147C 141.274,144.799 143.607,143.632 146.5,143.5 Z"/></g>
<g><path style="opacity:0.012" fill="#bac9c8" d="M 268.5,161.5 C 266.906,164.764 264.573,167.431 261.5,169.5C 263.094,166.236 265.427,163.569 268.5,161.5 Z"/></g>
<g><path style="opacity:1" fill="#556867" d="M 17.5,163.5 C 17.837,167.505 16.1703,170.172 12.5,171.5C 13.6693,168.489 15.336,165.822 17.5,163.5 Z"/></g>
<g><path style="opacity:0.125" fill="#a9bbba" d="M 12.5,171.5 C 12.573,173.027 11.9063,174.027 10.5,174.5C 10.427,172.973 11.0937,171.973 12.5,171.5 Z"/></g>
<g><path style="opacity:1" fill="#3e5856" d="M 261.5,169.5 C 259.167,172.5 256.5,175.167 253.5,177.5C 253.185,175.774 253.019,174.107 253,172.5C 253.333,172.833 253.667,173.167 254,173.5C 254.309,172.234 254.809,171.067 255.5,170C 257.473,169.505 259.473,169.338 261.5,169.5 Z"/></g>
<g><path style="opacity:0.039" fill="#b3bbbc" d="M 9.5,177.5 C 9.3404,179.153 8.67373,180.486 7.5,181.5C 7.22911,179.62 7.89578,178.287 9.5,177.5 Z"/></g>
<g><path style="opacity:0.027" fill="#b6c3c1" d="M 253.5,177.5 C 252.92,179.749 251.587,181.415 249.5,182.5C 249.5,181.833 249.5,181.167 249.5,180.5C 250.833,179.5 252.167,178.5 253.5,177.5 Z"/></g>
<g><path style="opacity:1" fill="#4f6666" d="M 249.5,180.5 C 249.5,181.167 249.5,181.833 249.5,182.5C 247.118,185.548 244.452,188.215 241.5,190.5C 241.852,188.295 242.852,186.462 244.5,185C 244.167,184.667 243.833,184.333 243.5,184C 245.381,182.481 247.381,181.315 249.5,180.5 Z"/></g>
<g><path style="opacity:0.999" fill="#19433c" d="M 98.5,96.5 C 99.4363,97.9744 100.77,98.9744 102.5,99.5C 102.557,100.609 102.89,101.609 103.5,102.5C 102.078,102.709 100.745,103.209 99.5,104C 100.833,105.84 100.666,106.34 99,105.5C 97.9328,106.943 96.7662,108.276 95.5,109.5C 96.0149,111.225 96.6816,112.892 97.5,114.5C 101.101,116.2 103.601,118.867 105,122.5C 105.718,121.549 106.551,121.383 107.5,122C 110.059,124.439 112.392,127.105 114.5,130C 119.57,131.432 122.57,134.765 123.5,140C 125.519,140.45 127.352,141.283 129,142.5C 130.586,141.624 132.086,140.624 133.5,139.5C 132.965,137.729 132.131,137.396 131,138.5C 129.272,136.158 127.605,133.825 126,131.5C 124.333,132.833 122.667,132.833 121,131.5C 119.797,127.592 117.964,124.092 115.5,121C 116.674,119.489 118.007,118.322 119.5,117.5C 121.5,118.833 123.167,120.5 124.5,122.5C 123.957,122.56 123.624,122.893 123.5,123.5C 124.795,125.328 125.795,127.328 126.5,129.5C 128.5,130.5 130.5,131.5 132.5,132.5C 133.314,135.419 134.314,138.252 135.5,141C 135.167,141.333 134.833,141.667 134.5,142C 136.5,142.667 137.833,144 138.5,146C 136.751,146.785 135.084,147.618 133.5,148.5C 130.03,145.386 126.03,143.053 121.5,141.5C 121.5,141.167 121.5,140.833 121.5,140.5C 120.32,135.647 117.32,132.314 112.5,130.5C 111.376,129.086 110.376,127.586 109.5,126C 108.167,125.667 106.833,125.333 105.5,125C 103.886,122.873 101.886,121.373 99.5,120.5C 98.8333,120.167 98.1667,119.833 97.5,119.5C 94.7823,116.455 92.1156,113.455 89.5,110.5C 83.0236,108.92 79.0236,111.587 77.5,118.5C 76.3112,119.429 74.9778,119.762 73.5,119.5C 73.5,121.167 73.5,122.833 73.5,124.5C 68.7706,129.224 64.4373,134.224 60.5,139.5C 59.391,139.557 58.391,139.89 57.5,140.5C 54.7766,141.352 52.11,142.519 49.5,144C 46.7107,148.378 43.3774,152.878 39.5,157.5C 31.3833,161.935 26.3833,168.601 24.5,177.5C 24.6716,178.492 24.3382,179.158 23.5,179.5C 20.8539,182.969 18.3539,186.635 16,190.5C 16.072,195.544 14.9054,200.211 12.5,204.5C 12.9632,207.157 12.9632,209.991 12.5,213C 13.0237,219.832 13.5237,226.665 14,233.5C 15.9456,237.599 17.1122,241.932 17.5,246.5C 17.8178,247.647 18.4844,248.481 19.5,249C 19.1667,249.333 18.8333,249.667 18.5,250C 20.7475,252.947 23.0809,255.78 25.5,258.5C 28.8333,262.833 32.1667,267.167 35.5,271.5C 38.0366,274.2 40.37,277.033 42.5,280C 47.0941,282.118 51.0941,284.952 54.5,288.5C 54.5,289.167 54.5,289.833 54.5,290.5C 53.1266,290.657 51.7932,290.49 50.5,290C 47.2411,287.4 43.7411,285.234 40,283.5C 39.6258,284.416 39.1258,285.25 38.5,286C 39.8586,287.204 40.8586,288.704 41.5,290.5C 42.086,290.291 42.586,289.957 43,289.5C 44.3004,292.081 46.1338,292.748 48.5,291.5C 50.976,292.815 53.1427,294.482 55,296.5C 55.3333,296.167 55.6667,295.833 56,295.5C 57.2515,297.001 58.2515,298.668 59,300.5C 60.8886,299.903 62.7219,299.569 64.5,299.5C 65.9744,300.436 66.9744,301.77 67.5,303.5C 65.2351,304.647 62.9018,304.814 60.5,304C 57.0811,301.959 53.4145,300.459 49.5,299.5C 48.6143,298.675 48.281,297.675 48.5,296.5C 47.0413,296.433 45.7079,296.766 44.5,297.5C 43.8333,297.5 43.1667,297.5 42.5,297.5C 42.0269,296.094 41.0269,295.427 39.5,295.5C 38.4154,293.413 36.7488,292.08 34.5,291.5C 32.1002,288.097 29.1002,285.43 25.5,283.5C 25.6322,279.968 23.9656,277.968 20.5,277.5C 19.8617,275.54 19.8617,273.707 20.5,272C 18.6061,269.673 15.9395,267.506 12.5,265.5C 10.659,263.151 9.32567,260.485 8.5,257.5C 7.73651,253.863 6.40318,250.53 4.5,247.5C 2.04106,240.665 0.374391,233.665 -0.5,226.5C -0.5,220.833 -0.5,215.167 -0.5,209.5C 0.403972,208.791 0.737305,207.791 0.5,206.5C 1.91301,203.781 2.57968,200.781 2.5,197.5C 5.0747,193.699 6.40804,189.365 6.5,184.5C 6.26269,183.209 6.59603,182.209 7.5,181.5C 8.67373,180.486 9.3404,179.153 9.5,177.5C 9.55688,176.391 9.89022,175.391 10.5,174.5C 11.9063,174.027 12.573,173.027 12.5,171.5C 16.1703,170.172 17.837,167.505 17.5,163.5C 19.914,162.089 21.5806,160.089 22.5,157.5C 25.2427,155.761 27.2427,153.427 28.5,150.5C 28.5,149.833 28.8333,149.5 29.5,149.5C 33.8976,146.105 37.5643,142.105 40.5,137.5C 41.5,136.833 42.5,136.167 43.5,135.5C 45.1172,134.962 46.7839,134.629 48.5,134.5C 49.6846,130.308 52.3512,127.308 56.5,125.5C 57.086,125.709 57.586,126.043 58,126.5C 58.8757,121.085 61.5423,116.752 66,113.5C 66.9277,115.335 68.0944,115.668 69.5,114.5C 71.0528,112.735 71.3861,110.902 70.5,109C 72.0977,106.236 74.4311,104.403 77.5,103.5C 78.8848,102.449 79.8848,101.116 80.5,99.5C 82.6241,98.8506 84.6241,98.0173 86.5,97C 86.0426,96.586 85.7093,96.086 85.5,95.5C 86.1892,93.556 86.6892,91.556 87,89.5C 87.3333,89.8333 87.6667,90.1667 88,90.5C 89.0404,87.9595 90.8737,86.2929 93.5,85.5C 94.2458,84.2638 94.5792,82.9305 94.5,81.5C 97.0792,81.0833 99.2458,81.75 101,83.5C 101.227,80.9405 102.56,79.2738 105,78.5C 105.374,79.4162 105.874,80.2496 106.5,81C 103.003,83.1661 101.169,86.3327 101,90.5C 99.3335,89.6598 99.1669,90.1598 100.5,92C 99.552,92.4828 98.552,92.6495 97.5,92.5C 97.2322,94.099 97.5655,95.4324 98.5,96.5 Z"/></g>
<g><path style="opacity:1" fill="#59b888" d="M 105.5,127.5 C 110.633,132.128 115.967,136.461 121.5,140.5C 121.5,140.833 121.5,141.167 121.5,141.5C 121.833,142.167 122.167,142.833 122.5,143.5C 115.245,139.732 109.578,134.398 105.5,127.5 Z"/></g>
<g><path style="opacity:1" fill="#57b68a" d="M 89.5,110.5 C 92.1156,113.455 94.7823,116.455 97.5,119.5C 94.6927,117.32 91.526,115.653 88,114.5C 87,114.833 86,115.167 85,115.5C 77.9333,124.644 69.7666,132.644 60.5,139.5C 64.4373,134.224 68.7706,129.224 73.5,124.5C 78.1902,120.458 82.5235,115.958 86.5,111C 87.448,110.517 88.448,110.351 89.5,110.5 Z"/></g>
<g><path style="opacity:1" fill="#12533a" d="M 99.5,120.5 C 101.886,121.373 103.886,122.873 105.5,125C 106.833,125.333 108.167,125.667 109.5,126C 110.376,127.586 111.376,129.086 112.5,130.5C 117.32,132.314 120.32,135.647 121.5,140.5C 115.967,136.461 110.633,132.128 105.5,127.5C 103.5,125.167 101.5,122.833 99.5,120.5 Z"/></g>
<g><path style="opacity:1" fill="#56cf91" d="M 22.5,183.5 C 23.1667,183.5 23.8333,183.5 24.5,183.5C 23.5325,186.445 23.3658,189.445 24,192.5C 27.3284,188.177 31.8284,186.51 37.5,187.5C 37.5,190.167 37.5,192.833 37.5,195.5C 35.8561,195.714 34.3561,195.38 33,194.5C 31.277,199.416 31.1104,204.416 32.5,209.5C 34.6198,210.872 35.6198,210.205 35.5,207.5C 38.9264,207.728 41.593,206.395 43.5,203.5C 44.086,203.709 44.586,204.043 45,204.5C 45.4901,202.455 45.3235,200.455 44.5,198.5C 46.1683,199.844 47.8349,201.177 49.5,202.5C 51.3002,202.098 52.9668,201.431 54.5,200.5C 54.6495,201.552 54.4828,202.552 54,203.5C 53.6667,203.167 53.3333,202.833 53,202.5C 51,203.167 49,203.833 47,204.5C 47.464,206.193 48.2974,207.86 49.5,209.5C 48.8333,209.5 48.1667,209.5 47.5,209.5C 46.7261,208.853 45.7261,208.52 44.5,208.5C 42.9704,208.64 41.9704,209.307 41.5,210.5C 40.8826,210.611 40.3826,210.944 40,211.5C 39.8333,214.167 39.6667,216.833 39.5,219.5C 39.5217,222.59 40.1883,225.257 41.5,227.5C 41.5,229.167 41.5,230.833 41.5,232.5C 40.6438,239.21 43.3105,241.543 49.5,239.5C 50.4328,235.571 50.7662,231.571 50.5,227.5C 51.4972,227.47 52.1639,227.97 52.5,229C 52.0398,230.301 51.7065,231.634 51.5,233C 52.7958,235.734 53.2958,238.567 53,241.5C 52.6667,241.167 52.3333,240.833 52,240.5C 49.8948,243.302 47.0614,244.635 43.5,244.5C 43.4024,249.266 42.7357,253.933 41.5,258.5C 38.885,257.709 36.2184,257.043 33.5,256.5C 30.8712,253.369 28.0379,250.369 25,247.5C 23.1557,243.811 21.3223,240.145 19.5,236.5C 18.1092,229.93 17.4425,223.263 17.5,216.5C 18.6729,207.62 19.6729,198.62 20.5,189.5C 21.1667,187.5 21.8333,185.5 22.5,183.5 Z"/></g>
<g><path style="opacity:1" fill="#1b423d" d="M 195.5,-0.5 C 204.167,-0.5 212.833,-0.5 221.5,-0.5C 221.5,0.166667 221.833,0.5 222.5,0.5C 226.615,1.94341 230.948,2.94341 235.5,3.5C 238.369,5.84369 241.702,7.17702 245.5,7.5C 246.514,8.67373 247.847,9.3404 249.5,9.5C 251.153,9.6596 252.486,10.3263 253.5,11.5C 254.945,13.133 256.279,14.9663 257.5,17C 258.793,17.49 260.127,17.6567 261.5,17.5C 261.5,18.5 261.5,19.5 261.5,20.5C 263.216,20.6287 264.883,20.962 266.5,21.5C 267.911,23.914 269.911,25.5806 272.5,26.5C 273.419,29.0892 275.086,31.0892 277.5,32.5C 277.738,34.4044 278.738,35.7377 280.5,36.5C 280.738,38.4044 281.738,39.7377 283.5,40.5C 283.427,42.0269 284.094,43.0269 285.5,43.5C 285.92,45.674 285.92,47.674 285.5,49.5C 289.036,53.925 292.036,58.5917 294.5,63.5C 295.845,68.5893 297.179,73.5893 298.5,78.5C 298.5,87.1667 298.5,95.8333 298.5,104.5C 297.732,106.715 297.065,109.048 296.5,111.5C 294.989,114.544 294.322,117.878 294.5,121.5C 293.345,125.797 291.679,129.797 289.5,133.5C 287.896,134.287 287.229,135.62 287.5,137.5C 286.89,139.434 285.89,141.101 284.5,142.5C 283.094,142.973 282.427,143.973 282.5,145.5C 282.5,146.167 282.167,146.5 281.5,146.5C 280.094,146.973 279.427,147.973 279.5,149.5C 278.833,150.833 277.833,151.833 276.5,152.5C 275.833,152.833 275.167,153.167 274.5,153.5C 270.648,154.187 268.981,156.521 269.5,160.5C 269.5,161.167 269.167,161.5 268.5,161.5C 265.427,163.569 263.094,166.236 261.5,169.5C 259.473,169.338 257.473,169.505 255.5,170C 254.809,171.067 254.309,172.234 254,173.5C 253.667,173.167 253.333,172.833 253,172.5C 253.019,174.107 253.185,175.774 253.5,177.5C 252.167,178.5 250.833,179.5 249.5,180.5C 247.381,181.315 245.381,182.481 243.5,184C 243.833,184.333 244.167,184.667 244.5,185C 242.852,186.462 241.852,188.295 241.5,190.5C 239.413,191.585 238.08,193.251 237.5,195.5C 235.833,197.833 233.833,199.833 231.5,201.5C 230.5,202.167 229.5,202.833 228.5,203.5C 226.088,203.694 225.088,205.027 225.5,207.5C 224.5,207.5 223.5,207.5 222.5,207.5C 222.5,208.833 222.5,210.167 222.5,211.5C 220.833,212.833 219.167,214.167 217.5,215.5C 216.5,215.5 215.5,215.5 214.5,215.5C 213.833,217.833 213.167,220.167 212.5,222.5C 212.5,223.167 212.167,223.5 211.5,223.5C 210.5,223.833 209.833,224.5 209.5,225.5C 208.833,225.833 208.167,226.167 207.5,226.5C 203.678,227.493 200.512,229.493 198,232.5C 196.579,235.009 194.912,237.343 193,239.5C 192.506,241.134 192.34,242.801 192.5,244.5C 191.833,245.5 191.167,246.5 190.5,247.5C 189.391,247.557 188.391,247.89 187.5,248.5C 187.44,247.957 187.107,247.624 186.5,247.5C 184.846,249.824 183.179,252.158 181.5,254.5C 180.094,253.332 178.928,253.665 178,255.5C 177.805,256.819 177.972,258.153 178.5,259.5C 177.5,259.833 176.833,260.5 176.5,261.5C 176.167,262.167 175.833,262.833 175.5,263.5C 173.685,264.63 171.685,265.296 169.5,265.5C 168.833,267.167 168.167,268.833 167.5,270.5C 164.014,270.295 163.014,271.629 164.5,274.5C 164.5,275.167 164.167,275.5 163.5,275.5C 162.5,275.833 161.833,276.5 161.5,277.5C 159.833,279.833 157.833,281.833 155.5,283.5C 154.5,283.833 153.833,284.5 153.5,285.5C 153.167,286.5 152.5,287.167 151.5,287.5C 148.066,286.082 146.399,287.415 146.5,291.5C 145.167,292.167 144.167,293.167 143.5,294.5C 141.973,294.427 140.973,295.094 140.5,296.5C 140.027,297.906 139.027,298.573 137.5,298.5C 135.973,298.427 134.973,299.094 134.5,300.5C 128.326,304.249 121.659,306.915 114.5,308.5C 98.8333,311.167 83.1667,311.167 67.5,308.5C 63.767,306.589 59.767,305.256 55.5,304.5C 54.3646,302.787 52.698,302.12 50.5,302.5C 50.0269,301.094 49.0269,300.427 47.5,300.5C 46.5084,300.672 45.8417,300.338 45.5,299.5C 45.1667,298.833 44.8333,298.167 44.5,297.5C 45.7079,296.766 47.0413,296.433 48.5,296.5C 48.281,297.675 48.6143,298.675 49.5,299.5C 53.4145,300.459 57.0811,301.959 60.5,304C 62.9018,304.814 65.2351,304.647 67.5,303.5C 66.9744,301.77 65.9744,300.436 64.5,299.5C 62.7219,299.569 60.8886,299.903 59,300.5C 58.2515,298.668 57.2515,297.001 56,295.5C 55.6667,295.833 55.3333,296.167 55,296.5C 53.1427,294.482 50.976,292.815 48.5,291.5C 46.1338,292.748 44.3004,292.081 43,289.5C 42.586,289.957 42.086,290.291 41.5,290.5C 40.8586,288.704 39.8586,287.204 38.5,286C 39.1258,285.25 39.6258,284.416 40,283.5C 43.7411,285.234 47.2411,287.4 50.5,290C 51.7932,290.49 53.1266,290.657 54.5,290.5C 66.2667,296.693 78.9334,299.36 92.5,298.5C 99.2237,297.889 105.89,297.889 112.5,298.5C 116.17,297.594 119.504,296.094 122.5,294C 122.167,293.667 121.833,293.333 121.5,293C 124.432,292.047 127.432,291.547 130.5,291.5C 131.164,289.133 132.497,287.133 134.5,285.5C 138.68,282.577 143.013,279.91 147.5,277.5C 148.51,274.745 150.343,272.745 153,271.5C 153.667,269.5 154.333,267.5 155,265.5C 159.473,262.361 163.306,258.527 166.5,254C 169.56,252.942 172.394,251.442 175,249.5C 175.333,247.833 175.667,246.167 176,244.5C 180.763,243.187 183.597,240.02 184.5,235C 188.671,234.161 191.671,231.828 193.5,228C 196.96,227.582 198.293,225.915 197.5,223C 198.833,220.333 200.167,217.667 201.5,215C 199.16,212.996 197.66,210.496 197,207.5C 196.333,208.833 195.667,208.833 195,207.5C 195,206.167 195,204.833 195,203.5C 193.23,204.276 191.397,204.11 189.5,203C 188.331,201.164 186.664,199.998 184.5,199.5C 183.675,197.64 182.675,195.974 181.5,194.5C 180.5,194.5 179.5,194.5 178.5,194.5C 178.649,193.448 178.483,192.448 178,191.5C 175.749,189.623 173.249,188.123 170.5,187C 168.372,185.333 167.039,183.166 166.5,180.5C 162.785,178.118 159.785,175.118 157.5,171.5C 159.102,169.926 161.102,169.259 163.5,169.5C 163.351,168.448 163.517,167.448 164,166.5C 164.811,167.96 165.645,168.293 166.5,167.5C 165.652,165.591 165.318,163.591 165.5,161.5C 173.22,168.889 180.886,176.222 188.5,183.5C 193.938,188.436 199.271,193.603 204.5,199C 206.207,200.32 207.874,201.32 209.5,202C 229.305,180.86 249.139,159.693 269,138.5C 278.84,124.005 283.673,107.839 283.5,90C 282.132,56.1939 266.132,32.6939 235.5,19.5C 233.383,17.3455 230.716,16.3455 227.5,16.5C 224.193,15.9492 220.86,15.6159 217.5,15.5C 216.791,14.596 215.791,14.2627 214.5,14.5C 209.35,13.3493 204.016,13.1826 198.5,14C 195.149,14.0572 192.149,14.8906 189.5,16.5C 186.921,16.3939 184.588,17.0605 182.5,18.5C 178.376,19.3992 174.709,21.0659 171.5,23.5C 168.802,23.8449 166.802,25.1782 165.5,27.5C 160.868,30.7978 156.534,34.4645 152.5,38.5C 150.5,39.8333 148.833,41.5 147.5,43.5C 146.026,44.4363 145.026,45.7697 144.5,47.5C 142.833,48.5 141.5,49.8333 140.5,51.5C 125.822,65.8452 111.822,80.8452 98.5,96.5C 97.5655,95.4324 97.2322,94.099 97.5,92.5C 98.552,92.6495 99.552,92.4828 100.5,92C 99.1669,90.1598 99.3335,89.6598 101,90.5C 101.169,86.3327 103.003,83.1661 106.5,81C 105.874,80.2496 105.374,79.4162 105,78.5C 102.56,79.2738 101.227,80.9405 101,83.5C 99.2458,81.75 97.0792,81.0833 94.5,81.5C 94.5792,82.9305 94.2458,84.2638 93.5,85.5C 90.8737,86.2929 89.0404,87.9595 88,90.5C 87.6667,90.1667 87.3333,89.8333 87,89.5C 86.6892,91.556 86.1892,93.556 85.5,95.5C 85.7093,96.086 86.0426,96.586 86.5,97C 84.6241,98.0173 82.6241,98.8506 80.5,99.5C 79.8848,101.116 78.8848,102.449 77.5,103.5C 74.4311,104.403 72.0977,106.236 70.5,109C 71.3861,110.902 71.0528,112.735 69.5,114.5C 68.0944,115.668 66.9277,115.335 66,113.5C 61.5423,116.752 58.8757,121.085 58,126.5C 57.586,126.043 57.086,125.709 56.5,125.5C 52.3512,127.308 49.6846,130.308 48.5,134.5C 46.7839,134.629 45.1172,134.962 43.5,135.5C 47.2332,131.773 50.5665,127.773 53.5,123.5C 56.1667,122.833 57.8333,121.167 58.5,118.5C 61.5725,116.431 63.9059,113.764 65.5,110.5C 66.1667,109.167 67.1667,108.167 68.5,107.5C 72.5658,104.437 75.8991,100.771 78.5,96.5C 78.5,95.8333 78.8333,95.5 79.5,95.5C 82.2427,93.7607 84.2427,91.4274 85.5,88.5C 86.8818,86.4514 88.5484,84.7847 90.5,83.5C 93.5725,81.4309 95.9059,78.7642 97.5,75.5C 98.8333,74.8333 99.8333,73.8333 100.5,72.5C 102.587,71.4154 103.92,69.7488 104.5,67.5C 104.833,66.5 105.5,65.8333 106.5,65.5C 109.144,64.8561 110.811,63.1894 111.5,60.5C 114.243,58.7607 116.243,56.4274 117.5,53.5C 120.472,51.8802 123.472,50.2135 126.5,48.5C 127.251,47.624 127.751,46.624 128,45.5C 128.333,45.8333 128.667,46.1667 129,46.5C 129.723,43.7799 131.223,41.6132 133.5,40C 132.402,39.2303 132.402,38.397 133.5,37.5C 136.5,35.1667 139.167,32.5 141.5,29.5C 143.167,28.5 144.5,27.1667 145.5,25.5C 150.132,22.2022 154.466,18.5355 158.5,14.5C 160.848,14.4077 162.514,13.4077 163.5,11.5C 165.967,11.2451 167.967,10.2451 169.5,8.5C 170.514,7.32627 171.847,6.6596 173.5,6.5C 177.767,5.74437 181.767,4.41104 185.5,2.5C 188.78,1.28794 192.113,0.287939 195.5,-0.5 Z"/></g>
<g><path style="opacity:1" fill="#115038" d="M 89.5,110.5 C 88.448,110.351 87.448,110.517 86.5,111C 82.5235,115.958 78.1902,120.458 73.5,124.5C 73.5,122.833 73.5,121.167 73.5,119.5C 74.9778,119.762 76.3112,119.429 77.5,118.5C 79.0236,111.587 83.0236,108.92 89.5,110.5 Z"/></g>
<g><path style="opacity:1" fill="#e5f0f0" d="M 140.5,51.5 C 139.37,53.3146 138.704,55.3146 138.5,57.5C 137.5,57.5 136.5,57.5 135.5,57.5C 135.66,59.1992 135.494,60.8659 135,62.5C 133.921,64.3937 132.587,64.727 131,63.5C 129.559,65.9304 128.726,68.2637 128.5,70.5C 127.675,71.3857 126.675,71.719 125.5,71.5C 125.719,72.675 125.386,73.675 124.5,74.5C 122.677,75.4909 121.177,76.8243 120,78.5C 116.89,77.3266 116.723,77.8266 119.5,80C 115.859,82.6477 113.359,86.1477 112,90.5C 109.076,91.4792 106.076,93.1459 103,95.5C 102.51,96.7932 102.343,98.1266 102.5,99.5C 100.77,98.9744 99.4363,97.9744 98.5,96.5C 111.822,80.8452 125.822,65.8452 140.5,51.5 Z"/></g>
<g><path style="opacity:1" fill="#a7bab9" d="M 152.5,38.5 C 151.833,41.1667 150.167,42.8333 147.5,43.5C 148.833,41.5 150.5,39.8333 152.5,38.5 Z"/></g>
<g><path style="opacity:1" fill="#e7f1f2" d="M 214.5,14.5 C 215.791,14.2627 216.791,14.596 217.5,15.5C 207.311,15.0378 197.311,16.2044 187.5,19C 186.107,20.1711 185.273,21.6711 185,23.5C 184.439,22.9781 183.772,22.6448 183,22.5C 178.285,23.7826 173.785,25.4492 169.5,27.5C 169.881,29.9418 169.214,30.6085 167.5,29.5C 163.834,32.6663 159.834,35.3329 155.5,37.5C 157.401,38.935 157.734,40.6017 156.5,42.5C 155.117,39.9244 154.283,40.2577 154,43.5C 153.667,43.1667 153.333,42.8333 153,42.5C 150.566,44.8146 147.733,46.4813 144.5,47.5C 145.026,45.7697 146.026,44.4363 147.5,43.5C 150.167,42.8333 151.833,41.1667 152.5,38.5C 156.534,34.4645 160.868,30.7978 165.5,27.5C 167.966,26.7023 169.966,25.369 171.5,23.5C 176.001,23.4216 179.668,21.7549 182.5,18.5C 184.588,17.0605 186.921,16.3939 189.5,16.5C 197.752,14.9497 206.085,14.2831 214.5,14.5 Z"/></g>
<g><path style="opacity:1" fill="#a2b6b5" d="M 171.5,23.5 C 169.966,25.369 167.966,26.7023 165.5,27.5C 166.802,25.1782 168.802,23.8449 171.5,23.5 Z"/></g>
<g><path style="opacity:1" fill="#bdd1ce" d="M 182.5,18.5 C 179.668,21.7549 176.001,23.4216 171.5,23.5C 174.709,21.0659 178.376,19.3992 182.5,18.5 Z"/></g>
<g><path style="opacity:1" fill="#758987" d="M 227.5,16.5 C 230.716,16.3455 233.383,17.3455 235.5,19.5C 235.167,19.5 234.833,19.5 234.5,19.5C 232.013,18.6772 229.679,17.6772 227.5,16.5 Z"/></g>
<g><path style="opacity:1" fill="#829b97" d="M 214.5,14.5 C 206.085,14.2831 197.752,14.9497 189.5,16.5C 192.149,14.8906 195.149,14.0572 198.5,14C 204.016,13.1826 209.35,13.3493 214.5,14.5 Z"/></g>
<g><path style="opacity:1" fill="#135139" d="M 143.5,162.5 C 145.117,163.038 146.784,163.371 148.5,163.5C 151.271,166.392 154.271,169.058 157.5,171.5C 159.785,175.118 162.785,178.118 166.5,180.5C 167.039,183.166 168.372,185.333 170.5,187C 173.249,188.123 175.749,189.623 178,191.5C 178.483,192.448 178.649,193.448 178.5,194.5C 179.5,194.5 180.5,194.5 181.5,194.5C 181.629,196.216 181.962,197.883 182.5,199.5C 182.167,199.5 181.833,199.5 181.5,199.5C 174.446,192.442 167.112,185.775 159.5,179.5C 154.254,173.849 148.921,168.183 143.5,162.5 Z"/></g>
<g><path style="opacity:1" fill="#5c6e6e" d="M 6.5,184.5 C 6.40804,189.365 5.0747,193.699 2.5,197.5C 3.0569,192.835 4.39024,188.502 6.5,184.5 Z"/></g>
<g><path style="opacity:0.027" fill="#b2bebf" d="M 241.5,190.5 C 240.92,192.749 239.587,194.415 237.5,195.5C 238.08,193.251 239.413,191.585 241.5,190.5 Z"/></g>
<g><path style="opacity:1" fill="#66cb98" d="M 54.5,200.5 C 52.9668,201.431 51.3002,202.098 49.5,202.5C 47.8349,201.177 46.1683,199.844 44.5,198.5C 44.5913,194.288 46.5913,191.621 50.5,190.5C 50.33,189.178 50.6634,188.011 51.5,187C 53.8098,186.503 56.1432,186.337 58.5,186.5C 59.3961,191.915 58.0628,196.582 54.5,200.5 Z"/></g>
<g><path style="opacity:1" fill="#d5fae7" d="M 50.5,190.5 C 55.7113,187.006 57.878,188.339 57,194.5C 54.6745,197.011 51.8411,198.344 48.5,198.5C 48.2826,195.579 48.9493,192.913 50.5,190.5 Z"/></g>
<g><path style="opacity:0.004" fill="#b7c6c6" d="M 231.5,201.5 C 230.92,203.749 229.587,205.415 227.5,206.5C 227.557,205.391 227.89,204.391 228.5,203.5C 229.5,202.833 230.5,202.167 231.5,201.5 Z"/></g>
<g><path style="opacity:0.392" fill="#a2b3b0" d="M 2.5,197.5 C 2.57968,200.781 1.91301,203.781 0.5,206.5C 0.420323,203.219 1.08699,200.219 2.5,197.5 Z"/></g>
<g><path style="opacity:1" fill="#566c69" d="M 228.5,203.5 C 227.89,204.391 227.557,205.391 227.5,206.5C 226.167,208.5 224.5,210.167 222.5,211.5C 222.5,210.167 222.5,208.833 222.5,207.5C 223.5,207.5 224.5,207.5 225.5,207.5C 225.088,205.027 226.088,203.694 228.5,203.5 Z"/></g>
<g><path style="opacity:1" fill="#e5fdf3" d="M 48.5,231.5 C 48.5,234.167 48.5,236.833 48.5,239.5C 44.1078,239.474 42.1078,237.141 42.5,232.5C 42.5,225.167 42.5,217.833 42.5,210.5C 43.8333,210.5 45.1667,210.5 46.5,210.5C 46.3338,216.842 46.5005,223.175 47,229.5C 47.2784,230.416 47.7784,231.082 48.5,231.5 Z"/></g>
<g><path style="opacity:1" fill="#4b6160" d="M 217.5,215.5 C 216.89,216.391 216.557,217.391 216.5,218.5C 215.5,220.167 214.167,221.5 212.5,222.5C 213.167,220.167 213.833,217.833 214.5,215.5C 215.5,215.5 216.5,215.5 217.5,215.5 Z"/></g>
<g><path style="opacity:0.012" fill="#b3c3c3" d="M 222.5,211.5 C 221.243,214.427 219.243,216.761 216.5,218.5C 216.557,217.391 216.89,216.391 217.5,215.5C 219.167,214.167 220.833,212.833 222.5,211.5 Z"/></g>
<g><path style="opacity:1" fill="#bbecd3" d="M 47.5,209.5 C 47.3169,216.868 47.6502,224.201 48.5,231.5C 47.7784,231.082 47.2784,230.416 47,229.5C 46.5005,223.175 46.3338,216.842 46.5,210.5C 45.1667,210.5 43.8333,210.5 42.5,210.5C 42.5,217.833 42.5,225.167 42.5,232.5C 42.1667,232.5 41.8333,232.5 41.5,232.5C 41.5,230.833 41.5,229.167 41.5,227.5C 41.5,221.833 41.5,216.167 41.5,210.5C 41.9704,209.307 42.9704,208.64 44.5,208.5C 45.7261,208.52 46.7261,208.853 47.5,209.5 Z"/></g>
<g><path style="opacity:1" fill="#7cca9f" d="M 41.5,210.5 C 41.5,216.167 41.5,221.833 41.5,227.5C 40.1883,225.257 39.5217,222.59 39.5,219.5C 39.6667,216.833 39.8333,214.167 40,211.5C 40.3826,210.944 40.8826,210.611 41.5,210.5 Z"/></g>
<g><path style="opacity:1" fill="#104f39" d="M 23.5,179.5 C 23.1667,180.833 22.8333,182.167 22.5,183.5C 21.8333,185.5 21.1667,187.5 20.5,189.5C 18.403,193.858 16.903,198.524 16,203.5C 15.0595,214.265 15.5595,224.932 17.5,235.5C 17.446,238.992 18.446,241.992 20.5,244.5C 20.3398,246.199 20.5065,247.866 21,249.5C 22.7266,252.391 24.2266,255.391 25.5,258.5C 23.0809,255.78 20.7475,252.947 18.5,250C 18.8333,249.667 19.1667,249.333 19.5,249C 18.4844,248.481 17.8178,247.647 17.5,246.5C 17.1122,241.932 15.9456,237.599 14,233.5C 13.5237,226.665 13.0237,219.832 12.5,213C 12.9632,209.991 12.9632,207.157 12.5,204.5C 14.9054,200.211 16.072,195.544 16,190.5C 18.3539,186.635 20.8539,182.969 23.5,179.5 Z"/></g>
<g><path style="opacity:1" fill="#5ebe90" d="M 20.5,189.5 C 19.6729,198.62 18.6729,207.62 17.5,216.5C 17.4425,223.263 18.1092,229.93 19.5,236.5C 18.8333,236.167 18.1667,235.833 17.5,235.5C 15.5595,224.932 15.0595,214.265 16,203.5C 16.903,198.524 18.403,193.858 20.5,189.5 Z"/></g>
<g><path style="opacity:0.004" fill="#b3c1c1" d="M 211.5,223.5 C 211.5,224.833 210.833,225.5 209.5,225.5C 209.833,224.5 210.5,223.833 211.5,223.5 Z"/></g>
<g><path style="opacity:1" fill="#2d8767" d="M 189.5,207.5 C 192.13,209.628 194.63,211.961 197,214.5C 197.667,215.833 197.667,217.167 197,218.5C 188.74,226.595 180.574,234.928 172.5,243.5C 175.131,238.663 177.631,233.663 180,228.5C 182.135,226.722 184.635,226.055 187.5,226.5C 187.186,222.807 188.852,220.473 192.5,219.5C 192.833,218.5 193.167,217.5 193.5,216.5C 191.785,213.749 190.452,210.749 189.5,207.5 Z"/></g>
<g><path style="opacity:0.008" fill="#acbabb" d="M 209.5,225.5 C 209.573,227.027 208.906,228.027 207.5,228.5C 207.5,227.833 207.5,227.167 207.5,226.5C 208.167,226.167 208.833,225.833 209.5,225.5 Z"/></g>
<g><path style="opacity:1" fill="#324e4b" d="M 207.5,226.5 C 207.5,227.167 207.5,227.833 207.5,228.5C 206.167,230.5 204.5,232.167 202.5,233.5C 200.086,234.911 198.419,236.911 197.5,239.5C 196.167,241.5 194.5,243.167 192.5,244.5C 192.34,242.801 192.506,241.134 193,239.5C 194.912,237.343 196.579,235.009 198,232.5C 200.512,229.493 203.678,227.493 207.5,226.5 Z"/></g>
<g><path style="opacity:1" fill="#75c89f" d="M 47.5,209.5 C 48.1667,209.5 48.8333,209.5 49.5,209.5C 49.1771,215.69 49.5104,221.69 50.5,227.5C 50.7662,231.571 50.4328,235.571 49.5,239.5C 43.3105,241.543 40.6438,239.21 41.5,232.5C 41.8333,232.5 42.1667,232.5 42.5,232.5C 42.1078,237.141 44.1078,239.474 48.5,239.5C 48.5,236.833 48.5,234.167 48.5,231.5C 47.6502,224.201 47.3169,216.868 47.5,209.5 Z"/></g>
<g><path style="opacity:0.02" fill="#b4c4c2" d="M 202.5,233.5 C 201.581,236.089 199.914,238.089 197.5,239.5C 198.419,236.911 200.086,234.911 202.5,233.5 Z"/></g>
<g><path style="opacity:0.004" fill="#f2f2ed" d="M 199.5,241.5 C 200.833,242.167 200.833,242.167 199.5,241.5 Z"/></g>
<g><path style="opacity:1" fill="#4f6565" d="M 187.5,248.5 C 187.5,249.167 187.5,249.833 187.5,250.5C 184.833,253.833 181.833,256.833 178.5,259.5C 177.972,258.153 177.805,256.819 178,255.5C 178.928,253.665 180.094,253.332 181.5,254.5C 183.179,252.158 184.846,249.824 186.5,247.5C 187.107,247.624 187.44,247.957 187.5,248.5 Z"/></g>
<g><path style="opacity:0.012" fill="#bccbcd" d="M 190.5,247.5 C 189.833,248.833 188.833,249.833 187.5,250.5C 187.5,249.833 187.5,249.167 187.5,248.5C 188.391,247.89 189.391,247.557 190.5,247.5 Z"/></g>
<g><path style="opacity:0.18" fill="#a3b3b0" d="M 4.5,247.5 C 6.40318,250.53 7.73651,253.863 8.5,257.5C 6.20567,254.63 4.87234,251.297 4.5,247.5 Z"/></g>
<g><path style="opacity:0.004" fill="#f0efef" d="M 184.5,257.5 C 185.833,258.167 185.833,258.167 184.5,257.5 Z"/></g>
<g><path style="opacity:0.004" fill="#f1f2f1" d="M 184.5,258.5 C 183.833,259.167 183.833,259.167 184.5,258.5 Z"/></g>
<g><path style="opacity:0.004" fill="#bfc7c9" d="M 178.5,259.5 C 178.5,260.833 177.833,261.5 176.5,261.5C 176.833,260.5 177.5,259.833 178.5,259.5 Z"/></g>
<g><path style="opacity:1" fill="#54cb92" d="M 157.5,226.5 C 145.706,241.461 132.373,254.961 117.5,267C 113.547,269.139 109.547,270.972 105.5,272.5C 84.9288,277.956 65.2621,275.956 46.5,266.5C 46.1667,266.5 45.8333,266.5 45.5,266.5C 41.2079,263.543 37.2079,260.21 33.5,256.5C 36.2184,257.043 38.885,257.709 41.5,258.5C 43.3002,257.527 45.1335,256.527 47,255.5C 47.8891,252.313 48.7224,249.147 49.5,246C 54.226,244.518 57.8926,245.685 60.5,249.5C 62.1703,249.751 63.6703,250.418 65,251.5C 67.3797,258.508 65.2131,263.175 58.5,265.5C 60.7049,267.526 63.2049,269.192 66,270.5C 66.7504,269.874 67.5838,269.374 68.5,269C 67.1418,263.525 69.1418,261.692 74.5,263.5C 75.0393,266.695 74.0393,269.195 71.5,271C 72.4162,271.374 73.2496,271.874 74,272.5C 74.5194,271.484 75.3527,270.818 76.5,270.5C 80.392,271.855 80.0587,272.689 75.5,273C 80.8632,273.264 86.1965,273.764 91.5,274.5C 94.8525,273.12 97.8525,271.287 100.5,269C 102.769,268.242 104.936,268.409 107,269.5C 108.648,268.283 110.481,267.45 112.5,267C 113.833,266.333 113.833,265.667 112.5,265C 114,263.885 115.667,263.052 117.5,262.5C 118.251,261.624 118.751,260.624 119,259.5C 119.333,259.833 119.667,260.167 120,260.5C 121.444,258.845 123.278,258.178 125.5,258.5C 126.201,256.092 127.201,253.758 128.5,251.5C 131.692,251.139 133.859,249.472 135,246.5C 135.667,247.833 136.333,247.833 137,246.5C 137.47,244.226 138.47,242.226 140,240.5C 140.333,240.833 140.667,241.167 141,241.5C 143.581,237.369 147.081,233.369 151.5,229.5C 152.386,228.675 152.719,227.675 152.5,226.5C 154.167,226.5 155.833,226.5 157.5,226.5 Z"/></g>
<g><path style="opacity:1" fill="#299066" d="M 17.5,235.5 C 18.1667,235.833 18.8333,236.167 19.5,236.5C 21.3223,240.145 23.1557,243.811 25,247.5C 28.0379,250.369 30.8712,253.369 33.5,256.5C 37.2079,260.21 41.2079,263.543 45.5,266.5C 44.6868,267.653 43.6868,267.653 42.5,266.5C 41.5,267.833 40.5,269.167 39.5,270.5C 39.1667,270.333 38.8333,270.167 38.5,270C 36.4168,265.467 33.5834,260.967 30,256.5C 26.5703,253.566 24.237,249.899 23,245.5C 22.3292,244.748 21.4959,244.414 20.5,244.5C 18.446,241.992 17.446,238.992 17.5,235.5 Z"/></g>
<g><path style="opacity:1" fill="#239164" d="M 181.5,201.5 C 181.548,205.777 181.882,209.777 182.5,213.5C 182.456,216.41 181.29,217.41 179,216.5C 178.517,217.448 178.351,218.448 178.5,219.5C 176.08,219.708 173.747,219.374 171.5,218.5C 170.757,219.908 169.923,221.241 169,222.5C 167.757,221.664 166.59,221.997 165.5,223.5C 164.568,225.795 163.735,228.129 163,230.5C 161.013,231.218 159.179,232.218 157.5,233.5C 156.914,233.291 156.414,232.957 156,232.5C 152.57,236.247 149.403,240.081 146.5,244C 147.328,244.915 148.328,245.581 149.5,246C 148.833,246.333 148.167,246.667 147.5,247C 150.379,249.038 153.046,248.871 155.5,246.5C 154.513,242.633 155.013,242.633 157,246.5C 157.333,245.833 157.667,245.167 158,244.5C 159.067,245.191 160.234,245.691 161.5,246C 160.5,246.333 159.5,246.667 158.5,247C 161.259,249.574 160.926,251.74 157.5,253.5C 156.534,255.396 156.201,257.396 156.5,259.5C 154.54,258.862 152.707,258.862 151,259.5C 147.753,256.031 143.92,253.364 139.5,251.5C 137.729,252.035 137.396,252.869 138.5,254C 136.695,254.972 135.028,256.139 133.5,257.5C 133.137,260.594 131.803,263.594 129.5,266.5C 124.181,269.311 118.847,271.311 113.5,272.5C 110.904,271.787 108.237,271.787 105.5,272.5C 109.547,270.972 113.547,269.139 117.5,267C 132.373,254.961 145.706,241.461 157.5,226.5C 165.73,218.359 173.73,210.025 181.5,201.5 Z"/></g>
<g><path style="opacity:0.004" fill="#c9d4d2" d="M 13.5,267.5 C 14.9063,267.973 15.573,268.973 15.5,270.5C 14.0937,270.027 13.427,269.027 13.5,267.5 Z"/></g>
<g><path style="opacity:1" fill="#526b66" d="M 12.5,265.5 C 15.9395,267.506 18.6061,269.673 20.5,272C 19.8617,273.707 19.8617,275.54 20.5,277.5C 18.4776,275.469 16.8109,273.135 15.5,270.5C 15.573,268.973 14.9063,267.973 13.5,267.5C 12.6618,267.158 12.3284,266.492 12.5,265.5 Z"/></g>
<g><path style="opacity:1" fill="#647b7a" d="M 175.5,263.5 C 172.167,267.5 168.5,271.167 164.5,274.5C 163.014,271.629 164.014,270.295 167.5,270.5C 168.167,268.833 168.833,267.167 169.5,265.5C 171.685,265.296 173.685,264.63 175.5,263.5 Z"/></g>
<g><path style="opacity:1" fill="#104739" d="M 181.5,194.5 C 182.675,195.974 183.675,197.64 184.5,199.5C 186.664,199.998 188.331,201.164 189.5,203C 191.397,204.11 193.23,204.276 195,203.5C 195,204.833 195,206.167 195,207.5C 195.667,208.833 196.333,208.833 197,207.5C 197.66,210.496 199.16,212.996 201.5,215C 200.167,217.667 198.833,220.333 197.5,223C 198.293,225.915 196.96,227.582 193.5,228C 191.671,231.828 188.671,234.161 184.5,235C 183.597,240.02 180.763,243.187 176,244.5C 175.667,246.167 175.333,247.833 175,249.5C 172.394,251.442 169.56,252.942 166.5,254C 163.306,258.527 159.473,262.361 155,265.5C 154.333,267.5 153.667,269.5 153,271.5C 150.343,272.745 148.51,274.745 147.5,277.5C 143.013,279.91 138.68,282.577 134.5,285.5C 132.497,287.133 131.164,289.133 130.5,291.5C 127.432,291.547 124.432,292.047 121.5,293C 121.833,293.333 122.167,293.667 122.5,294C 119.504,296.094 116.17,297.594 112.5,298.5C 105.89,297.889 99.2237,297.889 92.5,298.5C 78.9334,299.36 66.2667,296.693 54.5,290.5C 54.5,289.833 54.5,289.167 54.5,288.5C 69.5765,296.17 85.5765,298.67 102.5,296C 111.959,294.06 120.959,291.06 129.5,287C 131.041,285.629 132.375,284.129 133.5,282.5C 135.932,281.25 138.266,279.75 140.5,278C 152.048,267.286 162.715,255.786 172.5,243.5C 180.574,234.928 188.74,226.595 197,218.5C 197.667,217.167 197.667,215.833 197,214.5C 194.63,211.961 192.13,209.628 189.5,207.5C 187.167,204.833 184.833,202.167 182.5,199.5C 181.962,197.883 181.629,196.216 181.5,194.5 Z"/></g>
<g><path style="opacity:0.004" fill="#c3d0d1" d="M 163.5,275.5 C 163.5,276.833 162.833,277.5 161.5,277.5C 161.833,276.5 162.5,275.833 163.5,275.5 Z"/></g>
<g><path style="opacity:1" fill="#687f79" d="M 20.5,277.5 C 23.9656,277.968 25.6322,279.968 25.5,283.5C 23.3674,281.909 21.7007,279.909 20.5,277.5 Z"/></g>
<g><path style="opacity:1" fill="#278c66" d="M 181.5,199.5 C 181.833,199.5 182.167,199.5 182.5,199.5C 184.833,202.167 187.167,204.833 189.5,207.5C 190.452,210.749 191.785,213.749 193.5,216.5C 193.167,217.5 192.833,218.5 192.5,219.5C 188.852,220.473 187.186,222.807 187.5,226.5C 184.635,226.055 182.135,226.722 180,228.5C 177.631,233.663 175.131,238.663 172.5,243.5C 162.715,255.786 152.048,267.286 140.5,278C 138.266,279.75 135.932,281.25 133.5,282.5C 124.336,286.09 115.003,289.59 105.5,293C 92.5804,295.455 79.9138,294.789 67.5,291C 65.982,289.152 64.1487,287.652 62,286.5C 61.6667,286.833 61.3333,287.167 61,287.5C 58.2249,285.741 55.2249,284.408 52,283.5C 50.3379,282.003 48.8379,280.337 47.5,278.5C 43.7229,277.948 41.0562,275.948 39.5,272.5C 38.3112,271.571 36.9778,271.238 35.5,271.5C 32.1667,267.167 28.8333,262.833 25.5,258.5C 24.2266,255.391 22.7266,252.391 21,249.5C 20.5065,247.866 20.3398,246.199 20.5,244.5C 21.4959,244.414 22.3292,244.748 23,245.5C 24.237,249.899 26.5703,253.566 30,256.5C 33.5834,260.967 36.4168,265.467 38.5,270C 38.8333,270.167 39.1667,270.333 39.5,270.5C 40.5,269.167 41.5,267.833 42.5,266.5C 43.6868,267.653 44.6868,267.653 45.5,266.5C 45.8333,266.5 46.1667,266.5 46.5,266.5C 48.8933,268.486 51.06,270.819 53,273.5C 53.3333,273.167 53.6667,272.833 54,272.5C 55.864,273.964 58.0306,274.964 60.5,275.5C 61.2561,277.451 61.5894,279.284 61.5,281C 60.5509,281.617 59.7175,281.451 59,280.5C 58.2765,283.125 59.2765,284.792 62,285.5C 64.3333,284.167 66.6667,282.833 69,281.5C 73.5218,283.672 77.6884,282.839 81.5,279C 85.5,278.667 89.5,278.333 93.5,278C 91.4049,277.444 91.2382,276.944 93,276.5C 95.2547,276.118 97.4214,276.784 99.5,278.5C 102.472,277.37 104.472,275.37 105.5,272.5C 108.237,271.787 110.904,271.787 113.5,272.5C 118.847,271.311 124.181,269.311 129.5,266.5C 131.803,263.594 133.137,260.594 133.5,257.5C 135.028,256.139 136.695,254.972 138.5,254C 137.396,252.869 137.729,252.035 139.5,251.5C 143.92,253.364 147.753,256.031 151,259.5C 152.707,258.862 154.54,258.862 156.5,259.5C 156.201,257.396 156.534,255.396 157.5,253.5C 160.926,251.74 161.259,249.574 158.5,247C 159.5,246.667 160.5,246.333 161.5,246C 160.234,245.691 159.067,245.191 158,244.5C 157.667,245.167 157.333,245.833 157,246.5C 155.013,242.633 154.513,242.633 155.5,246.5C 153.046,248.871 150.379,249.038 147.5,247C 148.167,246.667 148.833,246.333 149.5,246C 148.328,245.581 147.328,244.915 146.5,244C 149.403,240.081 152.57,236.247 156,232.5C 156.414,232.957 156.914,233.291 157.5,233.5C 159.179,232.218 161.013,231.218 163,230.5C 163.735,228.129 164.568,225.795 165.5,223.5C 166.59,221.997 167.757,221.664 169,222.5C 169.923,221.241 170.757,219.908 171.5,218.5C 173.747,219.374 176.08,219.708 178.5,219.5C 178.351,218.448 178.517,217.448 179,216.5C 181.29,217.41 182.456,216.41 182.5,213.5C 181.882,209.777 181.548,205.777 181.5,201.5C 181.5,200.833 181.5,200.167 181.5,199.5 Z"/></g>
<g><path style="opacity:1" fill="#248e62" d="M 46.5,266.5 C 65.2621,275.956 84.9288,277.956 105.5,272.5C 104.472,275.37 102.472,277.37 99.5,278.5C 97.4214,276.784 95.2547,276.118 93,276.5C 91.2382,276.944 91.4049,277.444 93.5,278C 89.5,278.333 85.5,278.667 81.5,279C 77.6884,282.839 73.5218,283.672 69,281.5C 66.6667,282.833 64.3333,284.167 62,285.5C 59.2765,284.792 58.2765,283.125 59,280.5C 59.7175,281.451 60.5509,281.617 61.5,281C 61.5894,279.284 61.2561,277.451 60.5,275.5C 58.0306,274.964 55.864,273.964 54,272.5C 53.6667,272.833 53.3333,273.167 53,273.5C 51.06,270.819 48.8933,268.486 46.5,266.5 Z"/></g>
<g><path style="opacity:1" fill="#6ec89a" d="M 60.5,249.5 C 64.7834,252.578 65.6167,256.578 63,261.5C 55.6963,262.573 51.1963,259.406 49.5,252C 49,248.5 50.5,247 54,247.5C 56.239,248.091 58.4057,248.758 60.5,249.5 Z"/></g>
<g><path style="opacity:1" fill="#defbed" d="M 52.5,249.5 C 58.779,250.448 61.779,254.115 61.5,260.5C 57.7301,259.264 54.5635,256.931 52,253.5C 51.4209,252.072 51.5876,250.738 52.5,249.5 Z"/></g>
<g><path style="opacity:0.004" fill="#eff0f1" d="M 18.5,281.5 C 19.8333,282.167 19.8333,282.167 18.5,281.5 Z"/></g>
<g><path style="opacity:0.933" fill="#96a8a5" d="M 25.5,283.5 C 29.1002,285.43 32.1002,288.097 34.5,291.5C 30.8998,289.57 27.8998,286.903 25.5,283.5 Z"/></g>
<g><path style="opacity:0.004" fill="#c2cecd" d="M 155.5,283.5 C 155.5,284.833 154.833,285.5 153.5,285.5C 153.833,284.5 154.5,283.833 155.5,283.5 Z"/></g>
<g><path style="opacity:1" fill="#4f6565" d="M 151.5,287.5 C 150.5,289.167 149.167,290.5 147.5,291.5C 147.167,291.5 146.833,291.5 146.5,291.5C 146.399,287.415 148.066,286.082 151.5,287.5 Z"/></g>
<g><path style="opacity:0.004" fill="#f3f4f3" d="M 151.5,291.5 C 152.833,292.167 152.833,292.167 151.5,291.5 Z"/></g>
<g><path style="opacity:0.02" fill="#c1cdcc" d="M 146.5,291.5 C 146.833,291.5 147.167,291.5 147.5,291.5C 146.738,293.262 145.404,294.262 143.5,294.5C 144.167,293.167 145.167,292.167 146.5,291.5 Z"/></g>
<g><path style="opacity:0.22" fill="#98abaa" d="M 34.5,291.5 C 36.7488,292.08 38.4154,293.413 39.5,295.5C 37.2512,294.92 35.5846,293.587 34.5,291.5 Z"/></g>
<g><path style="opacity:1" fill="#308166" d="M 35.5,271.5 C 36.9778,271.238 38.3112,271.571 39.5,272.5C 41.0562,275.948 43.7229,277.948 47.5,278.5C 48.8379,280.337 50.3379,282.003 52,283.5C 55.2249,284.408 58.2249,285.741 61,287.5C 61.3333,287.167 61.6667,286.833 62,286.5C 64.1487,287.652 65.982,289.152 67.5,291C 79.9138,294.789 92.5804,295.455 105.5,293C 115.003,289.59 124.336,286.09 133.5,282.5C 132.375,284.129 131.041,285.629 129.5,287C 120.959,291.06 111.959,294.06 102.5,296C 85.5765,298.67 69.5765,296.17 54.5,288.5C 51.0941,284.952 47.0941,282.118 42.5,280C 40.37,277.033 38.0366,274.2 35.5,271.5 Z"/></g>
<g><path style="opacity:0.008" fill="#b7cac8" d="M 143.5,294.5 C 143.027,295.906 142.027,296.573 140.5,296.5C 140.973,295.094 141.973,294.427 143.5,294.5 Z"/></g>
<g><path style="opacity:0.533" fill="#99adac" d="M 39.5,295.5 C 41.0269,295.427 42.0269,296.094 42.5,297.5C 40.9731,297.573 39.9731,296.906 39.5,295.5 Z"/></g>
<g><path style="opacity:0.263" fill="#a3b3b2" d="M 42.5,297.5 C 43.1667,297.5 43.8333,297.5 44.5,297.5C 44.8333,298.167 45.1667,298.833 45.5,299.5C 43.9731,299.573 42.9731,298.906 42.5,297.5 Z"/></g>
<g><path style="opacity:0.004" fill="#bccdcd" d="M 137.5,298.5 C 137.027,299.906 136.027,300.573 134.5,300.5C 134.973,299.094 135.973,298.427 137.5,298.5 Z"/></g>
<g><path style="opacity:0.051" fill="#b8c8c7" d="M 47.5,300.5 C 49.0269,300.427 50.0269,301.094 50.5,302.5C 48.9731,302.573 47.9731,301.906 47.5,300.5 Z"/></g>
<g><path style="opacity:0.984" fill="#809292" d="M 50.5,302.5 C 52.698,302.12 54.3646,302.787 55.5,304.5C 53.597,304.204 51.9303,303.537 50.5,302.5 Z"/></g>
<g><path style="opacity:0.984" fill="#889998" d="M 55.5,304.5 C 59.767,305.256 63.767,306.589 67.5,308.5C 63.0845,308.139 59.0845,306.806 55.5,304.5 Z"/></g>
<g><path style="opacity:0.447" fill="#98a9a8" d="M 67.5,308.5 C 83.1667,311.167 98.8333,311.167 114.5,308.5C 111.264,309.865 107.931,310.865 104.5,311.5C 95.5,311.5 86.5,311.5 77.5,311.5C 74.0689,310.865 70.7356,309.865 67.5,308.5 Z"/></g>
</svg>
