<?xml version="1.0" encoding="UTF-8" standalone="no"?><!DOCTYPE svg PUBLIC "-//W3C//DTD SVG 1.1//EN" "http://www.w3.org/Graphics/SVG/1.1/DTD/svg11.dtd"><svg width="100%" height="100%" viewBox="0 0 330 330" version="1.1" xmlns="http://www.w3.org/2000/svg" xmlns:xlink="http://www.w3.org/1999/xlink" xml:space="preserve" xmlns:serif="http://www.serif.com/" style="fill-rule:evenodd;clip-rule:evenodd;stroke-linejoin:round;stroke-miterlimit:2;"><g id="surface1639"><path d="M310.319,15.022c-3.652,0.16 -7.211,1.176 -10.418,2.461c-3.172,1.273 -21.445,9.074 -48.426,20.609c-26.98,11.535 -62.058,26.559 -96.824,41.457c-69.539,29.789 -137.871,59.106 -137.875,59.106l0.5,-0.192c0,0 -4.125,1.379 -8.305,4.293c-2.09,1.457 -4.34,3.336 -6.183,6.079c-1.84,2.742 -3.188,6.628 -2.68,10.738c1.781,14.433 16.742,18.531 16.742,18.531l0.059,0.027l66.769,22.852c1.703,5.68 20.25,67.586 24.332,80.699c2.25,7.246 4.36,11.43 6.563,14.281c1.098,1.426 2.254,2.532 3.527,3.34c0.508,0.321 1.039,0.563 1.567,0.778c0.011,0.004 0.019,-0.008 0.031,0c0.066,0.027 0.125,0.031 0.191,0.058l-0.176,-0.043c0.122,0.047 0.243,0.129 0.368,0.172c0.234,0.086 0.382,0.082 0.687,0.149c7.645,2.668 13.973,-2.286 13.973,-2.286l0.265,-0.207l41.016,-38.039l66.563,51.899l0.832,0.383c11.652,5.171 22.187,2.285 28.023,-2.461c5.836,-4.75 8.133,-10.871 8.133,-10.871l0.246,-0.645l48.91,-254.926c1.254,-5.703 1.43,-10.633 0.25,-15.09c-1.18,-4.453 -4.047,-8.328 -7.644,-10.472c-3.598,-2.145 -7.364,-2.84 -11.016,-2.68Zm0.394,15.246c1.485,-0.066 2.583,0.102 2.93,0.309c0.348,0.207 0.504,0.179 0.836,1.437c0.332,1.254 0.512,3.903 -0.398,8.043l-0.028,0.086l-48.632,253.445c-0.114,0.258 -1.129,2.602 -3.442,4.485c-2.363,1.922 -4.988,3.422 -11.953,0.5l-72.789,-56.766l-2.051,-1.609l-0.043,0.043l-21.769,-16.332l122.332,-143.922c1.918,-2.254 2.332,-5.426 1.058,-8.098c-1.277,-2.672 -4.004,-4.344 -6.965,-4.265c-1.414,0.035 -2.789,0.472 -3.968,1.261l-177.012,118.008l-66.871,-22.898c0,-0 -6.641,-3.696 -6.957,-6.27c-0.02,-0.14 -0.098,-0.012 0.25,-0.527c0.344,-0.512 1.211,-1.379 2.301,-2.137c2.171,-1.516 4.656,-2.434 4.656,-2.434l0.25,-0.085l0.25,-0.102c0,-0 68.336,-29.316 137.867,-59.109c34.77,-14.895 69.84,-29.907 96.813,-41.438c26.968,-11.531 46.457,-19.832 48.105,-20.496c1.879,-0.75 3.746,-1.059 5.23,-1.129Zm-81.125,80.805l-92.765,109.144l-0.047,0.043c-0.145,0.176 -0.281,0.356 -0.406,0.543c-0.149,0.203 -0.285,0.414 -0.414,0.629c-0.52,0.883 -0.852,1.867 -0.981,2.887l0,0.058l-12.082,54.344c-0.203,-0.586 -0.344,-0.801 -0.558,-1.492l0,-0.016c-3.84,-12.332 -21.34,-70.718 -23.762,-78.793l131.015,-87.347Zm-82.292,127.031l16.667,12.508l-24.492,22.703l7.825,-35.211Z" style="fill:#fefefe;fill-rule:nonzero;"/></g></svg>